# xmcd CD database file
#
# Track frame offsets:
#	150
#	16707
#	32607
#	47260
#	63095
#	80992
#	98907
#	115520
#	129072
#	147275
#
# Disc length: 2227 seconds
#
# Revision: 0
# Processed by: cddbd v1.5.1PL0 Copyright (c) Steve Scherf et al.
# Submitted via: CDex 1.51
#
DISCID=6e08b10a
DTITLE=Stupid Angel - Stupid Angel
DYEAR=1999
DGENRE=Hard Rock
TTITLE0=Peace Of Mind
TTITLE1=I Want You To Want Me
TTITLE2=This Is The Time
TTITLE3=I Can Hear Them Now
TTITLE4=So I Pray
TTITLE5=I Believe In You
TTITLE6=夢がないている
TTITLE7=君の胸で眠りつきたい
TTITLE8=Stupid Angel
TTITLE9=Hit Me One More Time
EXTD=YEAR: 1999
EXTT0=
EXTT1=
EXTT2=
EXTT3=
EXTT4=
EXTT5=
EXTT6=
EXTT7=
EXTT8=
EXTT9=
PLAYORDER=
